<svg width="72" height="72" viewBox="0 0 72 72" fill="none" xmlns="http://www.w3.org/2000/svg">
<g clip-path="url(#clip0_288_2088)">
<path d="M39 3V9C39 9.79565 38.6839 10.5587 38.1213 11.1213C37.5587 11.6839 36.7956 12 36 12C35.2044 12 34.4413 11.6839 33.8787 11.1213C33.3161 10.5587 33 9.79565 33 9V3C33 2.20435 33.3161 1.44129 33.8787 0.87868C34.4413 0.316071 35.2044 0 36 0C36.7956 0 37.5587 0.316071 38.1213 0.87868C38.6839 1.44129 39 2.20435 39 3V3ZM36 60C35.2044 60 34.4413 60.3161 33.8787 60.8787C33.3161 61.4413 33 62.2044 33 63V69C33 69.7956 33.3161 70.5587 33.8787 71.1213C34.4413 71.6839 35.2044 72 36 72C36.7956 72 37.5587 71.6839 38.1213 71.1213C38.6839 70.5587 39 69.7956 39 69V63C39 62.2044 38.6839 61.4413 38.1213 60.8787C37.5587 60.3161 36.7956 60 36 60ZM12 36C12 35.2044 11.6839 34.4413 11.1213 33.8787C10.5587 33.3161 9.79565 33 9 33H3C2.20435 33 1.44129 33.3161 0.87868 33.8787C0.316071 34.4413 0 35.2044 0 36C0 36.7956 0.316071 37.5587 0.87868 38.1213C1.44129 38.6839 2.20435 39 3 39H9C9.79565 39 10.5587 38.6839 11.1213 38.1213C11.6839 37.5587 12 36.7956 12 36ZM69 33H63C62.2044 33 61.4413 33.3161 60.8787 33.8787C60.3161 34.4413 60 35.2044 60 36C60 36.7956 60.3161 37.5587 60.8787 38.1213C61.4413 38.6839 62.2044 39 63 39H69C69.7956 39 70.5587 38.6839 71.1213 38.1213C71.6839 37.5587 72 36.7956 72 36C72 35.2044 71.6839 34.4413 71.1213 33.8787C70.5587 33.3161 69.7956 33 69 33ZM54.054 4.854C53.7131 4.65631 53.3365 4.52773 52.9458 4.47562C52.5552 4.42351 52.1581 4.44889 51.7772 4.5503C51.3964 4.65171 51.0393 4.82717 50.7263 5.06665C50.4132 5.30613 50.1505 5.60494 49.953 5.946L46.953 11.139C46.5549 11.8277 46.4467 12.6462 46.652 13.4147C46.8574 14.1832 47.3595 14.8387 48.048 15.237C48.503 15.5031 49.0209 15.6429 49.548 15.642C50.0746 15.642 50.5919 15.5034 51.048 15.2401C51.504 14.9768 51.8827 14.598 52.146 14.142L55.146 8.949C55.5434 8.26096 55.6515 7.44339 55.4468 6.67568C55.2421 5.90797 54.7412 5.25283 54.054 4.854V4.854ZM23.961 56.763C23.2727 56.3647 22.4544 56.256 21.686 56.4607C20.9175 56.6655 20.2618 57.167 19.863 57.855L16.863 63.048C16.4647 63.7363 16.356 64.5546 16.5607 65.323C16.7655 66.0915 17.267 66.7472 17.955 67.146C18.4101 67.4118 18.9279 67.5516 19.455 67.551C19.9821 67.5515 20.5 67.4131 20.9567 67.1498C21.4133 66.8865 21.7924 66.5075 22.056 66.051L25.056 60.858C25.4531 60.1696 25.5608 59.3518 25.3555 58.584C25.1502 57.8163 24.6487 57.1613 23.961 56.763V56.763ZM14.145 19.863L8.952 16.863C8.26516 16.4934 7.46136 16.4058 6.71103 16.6188C5.96071 16.8318 5.32284 17.3287 4.93267 18.0041C4.5425 18.6795 4.43071 19.4802 4.621 20.2367C4.81129 20.9931 5.28869 21.6456 5.952 22.056L11.145 25.056C11.8318 25.4256 12.6356 25.5132 13.386 25.3002C14.1363 25.0872 14.7742 24.5903 15.1643 23.9149C15.5545 23.2395 15.6663 22.4388 15.476 21.6823C15.2857 20.9259 14.8083 20.2734 14.145 19.863V19.863ZM66.045 49.953L60.852 46.953C60.1652 46.5834 59.3614 46.4958 58.611 46.7088C57.8607 46.9218 57.2228 47.4187 56.8327 48.0941C56.4425 48.7695 56.3307 49.5703 56.521 50.3267C56.7113 51.0831 57.1887 51.7356 57.852 52.146L63.045 55.146C63.5 55.4121 64.0179 55.5519 64.545 55.551C65.2054 55.551 65.8473 55.333 66.3712 54.931C66.8951 54.529 67.2717 53.9653 67.4426 53.3275C67.6136 52.6896 67.5692 52.0131 67.3165 51.403C67.0638 50.7929 66.6169 50.2832 66.045 49.953V49.953ZM22.047 5.946C21.6366 5.28269 20.9841 4.80529 20.2277 4.615C19.4712 4.42471 18.6705 4.5365 17.9951 4.92667C17.3197 5.31684 16.8228 5.95471 16.6098 6.70503C16.3968 7.45536 16.4844 8.25916 16.854 8.946L19.854 14.139C20.1173 14.595 20.496 14.9738 20.952 15.2371C21.4081 15.5004 21.9254 15.639 22.452 15.639C22.9791 15.6399 23.497 15.5001 23.952 15.234C24.6405 14.8357 25.1426 14.1802 25.348 13.4117C25.5533 12.6432 25.4451 11.8247 25.047 11.136L22.047 5.946ZM52.137 57.846C51.7266 57.1827 51.0741 56.7053 50.3177 56.515C49.5613 56.3247 48.7605 56.4365 48.0851 56.8267C47.4097 57.2168 46.9128 57.8547 46.6998 58.605C46.4868 59.3554 46.5744 60.1592 46.944 60.846L49.944 66.039C50.3544 66.7023 51.0069 67.1797 51.7633 67.37C52.5198 67.5603 53.3205 67.4485 53.9959 67.0583C54.6713 66.6682 55.1682 66.0303 55.3812 65.28C55.5942 64.5296 55.5066 63.7258 55.137 63.039L52.137 57.846ZM59.361 25.446C59.8876 25.446 60.405 25.3073 60.861 25.044L66.054 22.044C66.7173 21.6336 67.1947 20.9811 67.385 20.2247C67.5753 19.4682 67.4635 18.6675 67.0733 17.9921C66.6832 17.3167 66.0453 16.8198 65.295 16.6068C64.5446 16.3938 63.7408 16.4814 63.054 16.851L57.861 19.851C57.2906 20.1819 56.8451 20.6915 56.5934 21.301C56.3417 21.9105 56.2979 22.5859 56.4686 23.2229C56.6394 23.8598 57.0153 24.4227 57.5381 24.8246C58.0609 25.2264 58.7016 25.4448 59.361 25.446ZM11.139 46.944L5.946 49.944C5.37411 50.2742 4.92716 50.7839 4.67446 51.394C4.42176 52.0041 4.37744 52.6806 4.54836 53.3185C4.71928 53.9563 5.09589 54.52 5.6198 54.922C6.1437 55.324 6.78562 55.542 7.446 55.542C7.97314 55.5429 8.49096 55.4031 8.946 55.137L14.139 52.137C14.8023 51.7266 15.2797 51.0741 15.47 50.3177C15.6603 49.5613 15.5485 48.7605 15.1583 48.0851C14.7682 47.4097 14.1303 46.9128 13.38 46.6998C12.6296 46.4868 11.8258 46.5744 11.139 46.944V46.944Z" fill="white"/>
</g>
<defs>
<clipPath id="clip0_288_2088">
<rect width="72" height="72" fill="white"/>
</clipPath>
</defs>
</svg>
