<svg width="135" height="31" viewBox="0 0 135 31" fill="none" xmlns="http://www.w3.org/2000/svg">
<g clip-path="url(#clip0_138_2175)">
<path d="M115.37 19.8647H107.482V15.8709H113.167V13.007H102.303C101.928 13.007 101.818 12.9195 101.818 12.5703V5.55084H98.2706V14.0785C98.2706 15.3247 98.9319 15.8709 100.078 15.8709H103.868V19.8647H96.134V22.7074H115.37V19.8647ZM124.668 5.48543H116.538V14.0946C116.538 15.5378 117.001 15.9532 118.301 15.9532H121.65C123.192 15.9532 124.91 15.5812 125.615 15.2978L125.24 12.7613C124.623 13.0017 122.95 13.2421 121.848 13.2421H120.349C120.062 13.2421 119.953 13.1763 119.953 12.8047V12.0429H124.073V9.26646H119.953V8.21776H124.667V5.48543H124.668ZM135 17.6144H120.64V20.3258H131.541V25.4907H134.67C134.978 24.3974 135 22.8238 135 21.6864V17.6144H135ZM130.44 5.11338H127.135V8.96024H125.197V11.9113H127.135V16.609H130.44V5.11338ZM135 5.09131H131.586V16.6311H135V5.09131Z" fill="#6D6E71"/>
<path d="M93.6204 5.09131H90.0307V25.4819H93.2241C93.4449 24.2798 93.6204 22.5312 93.6204 21.0671V5.09131ZM81.4855 6.06015C77.3004 6.06015 75.3406 8.73468 75.3406 11.8563C75.3406 15.0662 77.3004 17.7191 81.4855 17.7191C85.6689 17.7191 87.6518 15.0662 87.6518 11.8563C87.6518 8.73468 85.6693 6.06015 81.4855 6.06015ZM81.5292 8.95823C83.2245 8.95823 84.194 10.0282 84.194 11.8784C84.194 13.9068 83.2245 14.8885 81.5292 14.8885C79.8116 14.8885 78.7762 13.9068 78.7762 11.8784C78.7762 10.0282 79.8116 8.95823 81.5292 8.95823Z" fill="#6D6E71"/>
<path d="M15.6256 30.9944C24.2517 30.9944 31.2447 24.056 31.2447 15.495C31.2447 6.93879 24.2517 0 15.6256 0C7.0044 0 0.012207 6.93879 0.012207 15.495C0.012207 24.056 7.0044 30.9944 15.6256 30.9944Z" fill="#C00C3F"/>
<path d="M15.0054 8.69629V22.2817H19.3631V21.0676H16.2538V8.69629H15.0054Z" fill="white"/>
<path d="M10.6416 12.4042C11.6761 12.4042 12.5141 11.5714 12.5141 10.5456C12.5141 9.52136 11.6761 8.69019 10.6416 8.69019C9.60906 8.69019 8.77148 9.52136 8.77148 10.5456C8.77148 11.5714 9.60906 12.4042 10.6416 12.4042Z" fill="white"/>
<path d="M16.2541 2.53044C16.0907 2.52121 15.7817 2.5188 15.6256 2.5188C8.42152 2.5188 2.55566 8.34266 2.55566 15.4934C2.55566 18.9561 3.91738 22.217 6.3844 24.666C8.85547 27.1182 12.139 28.4655 15.6256 28.4655C19.1219 28.4655 22.4027 27.1182 24.8758 24.666C27.3383 22.217 28.7017 18.9561 28.7017 15.4934V14.9014L28.1775 14.903H19.3658V16.1106H27.4556V16.2884C27.0378 22.4033 21.8971 27.2543 15.6256 27.2543C12.465 27.2543 9.48921 26.0282 7.25069 23.8071C5.00975 21.5885 3.77826 18.6327 3.77826 15.4934C3.77826 12.3529 5.00975 9.3998 7.25069 7.17556C9.48921 4.95454 12.465 3.73125 15.6256 3.73125C15.7676 3.73125 16.1041 3.73406 16.2541 3.74209V2.53044Z" fill="white"/>
<path d="M15.6312 31C24.2569 31 31.2625 24.0684 31.2625 15.5038C31.2625 6.93919 24.2569 0 15.6312 0C6.9926 0 0 6.93919 0 15.5038C0 24.0684 6.9926 31 15.6312 31Z" fill="#C00C3F"/>
<path d="M15.0024 8.7002V22.3004H19.3594V21.0776H16.2582V8.7002H15.0024Z" fill="white"/>
<path d="M10.6397 12.411C11.6762 12.411 12.5118 11.5746 12.5118 10.5532C12.5118 9.53101 11.6762 8.69141 10.6397 8.69141C9.60354 8.69141 8.76758 9.53101 8.76758 10.5532C8.76758 11.5754 9.60354 12.411 10.6397 12.411Z" fill="white"/>
<path d="M16.2577 2.53051C16.0943 2.52248 15.7837 2.51245 15.6353 2.51245C8.42026 2.51245 2.54834 8.34193 2.54834 15.4974C2.54834 18.9731 3.90925 22.2307 6.37425 24.6801C8.84977 27.1243 12.1337 28.4752 15.6353 28.4752C19.1235 28.4752 22.4071 27.1243 24.8777 24.6801C27.3488 22.2307 28.7166 18.9731 28.7166 15.4974V14.9195H28.1868H19.371V16.1151H27.4693C27.4693 16.1408 27.4693 16.268 27.4637 16.3009C27.0524 22.4182 21.904 27.2632 15.6353 27.2632C12.4621 27.2632 9.48674 26.0387 7.24782 23.8148C5.0008 21.6006 3.76325 18.65 3.76325 15.4974C3.76325 12.3626 5.0008 9.39706 7.24782 7.17563C9.48674 4.95582 12.4621 3.73132 15.6353 3.73132C15.772 3.73132 16.1044 3.73132 16.2577 3.73935V2.53051Z" fill="white"/>
<path d="M43.0181 5.40979H38.321V25.588H52.7479V21.6601H43.0181V5.40979ZM63.0807 17.8983H66.9062V21.4265C66.2008 21.693 64.8254 21.9587 63.5166 21.9587C59.2891 21.9587 57.8809 19.8284 57.8809 15.5003C57.8809 11.3733 59.222 8.94038 63.4495 8.94038C65.7992 8.94038 67.1407 9.67323 68.2464 11.0715L71.1668 8.4074C69.3882 5.87855 66.2672 5.11279 63.3492 5.11279C56.7716 5.11279 53.3169 8.6755 53.3169 15.4666C53.3169 22.2252 56.4367 25.8874 63.316 25.8874C66.4694 25.8874 69.5564 25.0888 71.2332 23.9241V14.1349H63.0807V17.8983Z" fill="#6D6E71"/>
</g>
<defs>
<clipPath id="clip0_138_2175">
<rect width="135" height="31" fill="white"/>
</clipPath>
</defs>
</svg>
