<svg width="177" height="33" viewBox="0 0 177 33" fill="none" xmlns="http://www.w3.org/2000/svg">
<path d="M167.9 17.1H166.6V5.5H162.4V26.8H166.6V20.6H167.8L171.9 26.8H176.9L171 18.8L176.7 12H171.8L167.9 17.1ZM156.7 17.7H151.3C151.4 15.7 152.4 14.7 154.1 14.7C156 14.7 156.7 15.9 156.7 17.7ZM160.9 19.1C160.9 14.9 159 11.7 154.3 11.7C149.6 11.7 147.1 14.5 147.1 19.4C147.1 24.6 149 27.2 154.5 27.2C157.1 27.2 159.5 26.4 160.6 25.6L159.8 22.8C158.5 23.4 156.7 23.9 155.2 23.9C153.7 23.9 152.6 23.5 152.1 23C151.5 22.4 151.3 21.4 151.3 20.4H160.8V19.1H160.9ZM145.7 12.1H140.8V8.60001L136.6 9.40002V12.1H134.1V15.4H136.6V21.9C136.6 25.8 137.8 27.2 141.2 27.2C143.1 27.2 144.9 26.8 146.3 26L145.7 23C144.8 23.5 143.6 23.7 142.7 23.7C141.3 23.7 140.7 23.2 140.7 21.4V15.5H145.6V12.1H145.7ZM129.2 19.3C129.2 22.7 128.6 24.1 125.9 24.1C123.7 24.1 123.1 22.4 123.1 19.4C123.1 16.1 123.8 14.7 126.4 14.7C128.7 14.8 129.2 16.6 129.2 19.3ZM126.4 11.7C121 11.7 118.7 14.2 118.7 19.4C118.7 24.2 120.3 27.2 125.8 27.2C131 27.2 133.5 24.7 133.5 19.6C133.5 14.5 131.9 11.7 126.4 11.7ZM103.8 12.1V26.9H108V16C108.5 15.6 109.6 15.2 110.5 15.2C112.6 15.2 113 16 113 17.7V26.9H117.2V16.7C117.2 13.7 116.1 11.8 112.6 11.8C111 11.8 109.2 12.2 107.9 13.1V12.2H103.8V12.1ZM88.4001 12.1V26.9H92.6001V16C93.1001 15.6 94.2001 15.2 95.1001 15.2C97.2001 15.2 97.6001 16 97.6001 17.7V26.9H101.8V16.7C101.8 13.7 100.7 11.8 97.2001 11.8C95.6001 11.8 93.8001 12.2 92.5001 13.1V12.2H88.4001V12.1ZM81.6001 26.9H86.0001V5.70001H81.6001V26.9Z" fill="#727171"/>
<path d="M16.3001 32.6C25.3001 32.6 32.6001 25.3 32.6001 16.3C32.6001 7.30002 25.3001 0 16.3001 0C7.3001 0 0.100098 7.30002 0.100098 16.3C0.100098 25.3 7.4001 32.6 16.3001 32.6Z" fill="#C40E37"/>
<path d="M15.7002 9.2002V23.4002H20.2002V22.2002H17.0002V9.2002H15.7002Z" fill="white"/>
<path d="M11.2001 13.1003C12.3001 13.1003 13.1001 12.2003 13.1001 11.2003C13.1001 10.1003 12.2001 9.30029 11.2001 9.30029C10.1001 9.30029 9.30008 10.2003 9.30008 11.2003C9.20008 12.2003 10.1001 13.1003 11.2001 13.1003Z" fill="white"/>
<path d="M17.0002 2.7002C16.8002 2.7002 16.5002 2.7002 16.3002 2.7002C8.8002 2.7002 2.7002 8.8002 2.7002 16.3002C2.7002 19.9002 4.1002 23.4002 6.7002 25.9002C9.3002 28.5002 12.7002 29.9002 16.3002 29.9002C19.9002 29.9002 23.4002 28.5002 25.9002 25.9002C28.5002 23.3002 29.9002 19.9002 29.9002 16.3002V15.7002H29.4002H20.2002V17.0002H28.6002V17.2002C28.2002 23.6002 22.8002 28.7002 16.3002 28.7002C13.0002 28.7002 9.9002 27.4002 7.6002 25.1002C5.3002 22.8002 4.0002 19.7002 4.0002 16.4002C4.0002 13.1002 5.3002 10.0002 7.6002 7.7002C9.9002 5.4002 13.0002 4.10019 16.3002 4.10019C16.4002 4.10019 16.8002 4.10019 17.0002 4.10019V2.7002Z" fill="white"/>
<path d="M16.3 32.6C25.3 32.6 32.6 25.3 32.6 16.3C32.6 7.30002 25.3 0 16.3 0C7.3 0 0 7.30002 0 16.3C0.1 25.3 7.4 32.6 16.3 32.6Z" fill="#C40E37"/>
<path d="M15.7002 9.2002V23.5002H20.2002V22.2002H17.0002V9.2002H15.7002Z" fill="white"/>
<path d="M11.2001 13.1002C12.3001 13.1002 13.1001 12.2002 13.1001 11.2002C13.1001 10.1002 12.2001 9.2002 11.2001 9.2002C10.1001 9.2002 9.30008 10.1002 9.30008 11.2002C9.20008 12.2002 10.1001 13.1002 11.2001 13.1002Z" fill="white"/>
<path d="M16.9998 2.7002C16.7998 2.7002 16.4998 2.7002 16.3998 2.7002C8.8998 2.7002 2.7998 8.8002 2.7998 16.3002C2.7998 19.9002 4.1998 23.4002 6.7998 25.9002C9.3998 28.5002 12.7998 29.9002 16.3998 29.9002C19.9998 29.9002 23.3998 28.5002 25.9998 25.9002C28.5998 23.3002 29.9998 19.9002 29.9998 16.3002V15.7002H29.3998H20.1998V17.0002H28.5998V17.2002C28.1998 23.6002 22.7998 28.7002 16.2998 28.7002C12.9998 28.7002 9.89981 27.4002 7.59981 25.1002C5.29981 22.8002 3.9998 19.7002 3.9998 16.4002C3.9998 13.1002 5.29981 10.0002 7.59981 7.7002C9.89981 5.4002 12.9998 4.10019 16.2998 4.10019C16.3998 4.10019 16.7998 4.10019 16.8998 4.10019V2.7002H16.9998Z" fill="white"/>
<path d="M65.7 18.8003H69.7V22.5003C69 22.8003 67.5 23.1003 66.2 23.1003C61.8 23.1003 60.3 20.9003 60.3 16.3003C60.3 12.0003 61.7 9.4003 66.1 9.4003C68.5 9.4003 69.9 10.2003 71.1 11.6003L74.1 8.80029C72.2 6.10029 69 5.30029 66 5.30029C59.2 5.30029 55.6 9.00029 55.6 16.2003C55.6 23.3003 58.8 27.1003 66 27.1003C69.3 27.1003 72.5 26.3003 74.2 25.0003V14.7003H65.7V18.8003ZM44.8 5.70029H40V26.9003H55V22.8003H44.9V5.70029H44.8Z" fill="#727171"/>
</svg>
