<svg width="24" height="24" viewBox="0 0 24 24" fill="none" xmlns="http://www.w3.org/2000/svg">
<g clip-path="url(#clip0_271_6466)">
<path d="M11.9999 24.0002C11.8683 24.0009 11.7379 23.9757 11.616 23.926C11.4942 23.8762 11.3834 23.8029 11.2899 23.7102L3.11994 15.5402C2.65431 15.0757 2.28488 14.524 2.03281 13.9165C1.78075 13.3091 1.651 12.6579 1.651 12.0002C1.651 11.3425 1.78075 10.6913 2.03281 10.0838C2.28488 9.4764 2.65431 8.92464 3.11994 8.46019L11.2899 0.290185C11.4782 0.101882 11.7336 -0.00390625 11.9999 -0.00390625C12.2662 -0.00390625 12.5216 0.101882 12.7099 0.290185C12.8982 0.478489 13.004 0.733884 13.004 1.00019C13.004 1.26649 12.8982 1.52188 12.7099 1.71019L4.53994 9.88019C3.97814 10.4427 3.66258 11.2052 3.66258 12.0002C3.66258 12.7952 3.97814 13.5577 4.53994 14.1202L12.7099 22.2902C12.8037 22.3831 12.8781 22.4937 12.9288 22.6156C12.9796 22.7375 13.0057 22.8682 13.0057 23.0002C13.0057 23.1322 12.9796 23.2629 12.9288 23.3848C12.8781 23.5066 12.8037 23.6172 12.7099 23.7102C12.6165 23.8029 12.5057 23.8762 12.3838 23.926C12.262 23.9757 12.1315 24.0009 11.9999 24.0002Z" fill="#374957"/>
<path d="M22.0001 24.0002C21.8685 24.0009 21.7381 23.9757 21.6162 23.926C21.4944 23.8762 21.3836 23.8029 21.2901 23.7102L11.7101 14.1202C11.1483 13.5577 10.8328 12.7952 10.8328 12.0002C10.8328 11.2052 11.1483 10.4427 11.7101 9.88019L21.2901 0.290185C21.4784 0.101882 21.7338 -0.00390625 22.0001 -0.00390625C22.2664 -0.00390625 22.5218 0.101882 22.7101 0.290185C22.8984 0.478489 23.0042 0.733884 23.0042 1.00019C23.0042 1.26649 22.8984 1.52188 22.7101 1.71019L13.1201 11.2902C13.0264 11.3831 12.952 11.4937 12.9012 11.6156C12.8505 11.7375 12.8243 11.8682 12.8243 12.0002C12.8243 12.1322 12.8505 12.2629 12.9012 12.3848C12.952 12.5066 13.0264 12.6172 13.1201 12.7102L22.7101 22.2902C22.8039 22.3831 22.8782 22.4937 22.929 22.6156C22.9798 22.7375 23.0059 22.8682 23.0059 23.0002C23.0059 23.1322 22.9798 23.2629 22.929 23.3848C22.8782 23.5066 22.8039 23.6172 22.7101 23.7102C22.6167 23.8029 22.5059 23.8762 22.384 23.926C22.2622 23.9757 22.1317 24.0009 22.0001 24.0002Z" fill="#374957"/>
</g>
<defs>
<clipPath id="clip0_271_6466">
<rect width="24" height="24" fill="white"/>
</clipPath>
</defs>
</svg>
