<svg width="21" height="20" viewBox="0 0 21 20" fill="none" xmlns="http://www.w3.org/2000/svg">
<path d="M10.5 0C4.97 0 0.5 4.47 0.5 10C0.5 15.53 4.97 20 10.5 20C16.03 20 20.5 15.53 20.5 10C20.5 4.47 16.03 0 10.5 0ZM14.79 12.89C14.8826 12.9826 14.956 13.0925 15.0061 13.2135C15.0562 13.3344 15.082 13.4641 15.082 13.595C15.082 13.7259 15.0562 13.8556 15.0061 13.9765C14.956 14.0975 14.8826 14.2074 14.79 14.3C14.6974 14.3926 14.5875 14.466 14.4665 14.5161C14.3456 14.5662 14.2159 14.592 14.085 14.592C13.9541 14.592 13.8244 14.5662 13.7035 14.5161C13.5825 14.466 13.4726 14.3926 13.38 14.3L10.5 11.41L7.61 14.3C7.42302 14.487 7.16943 14.592 6.905 14.592C6.64057 14.592 6.38698 14.487 6.2 14.3C6.01302 14.113 5.90798 13.8594 5.90798 13.595C5.90798 13.4641 5.93377 13.3344 5.98387 13.2135C6.03398 13.0925 6.10742 12.9826 6.2 12.89L9.09 10L6.21 7.11C6.11742 7.01742 6.04398 6.90751 5.99387 6.78654C5.94377 6.66558 5.91798 6.53593 5.91798 6.405C5.91798 6.14057 6.02302 5.88698 6.21 5.7C6.39698 5.51302 6.65057 5.40798 6.915 5.40798C7.17943 5.40798 7.43302 5.51302 7.62 5.7L10.5 8.59L13.39 5.7C13.4826 5.60742 13.5925 5.53398 13.7135 5.48387C13.8344 5.43377 13.9641 5.40798 14.095 5.40798C14.2259 5.40798 14.3556 5.43377 14.4765 5.48387C14.5975 5.53398 14.7074 5.60742 14.8 5.7C14.8926 5.79258 14.966 5.90249 15.0161 6.02346C15.0662 6.14442 15.092 6.27407 15.092 6.405C15.092 6.53593 15.0662 6.66558 15.0161 6.78654C14.966 6.90751 14.8926 7.01742 14.8 7.11L11.91 10L14.79 12.89Z" fill="#77787B"/>
</svg>
