<svg width="13" height="13" viewBox="0 0 13 13" fill="none" xmlns="http://www.w3.org/2000/svg">
<path d="M3.125 0.714844C3.22446 0.714844 3.31984 0.754353 3.39016 0.824679C3.46049 0.895005 3.5 0.990388 3.5 1.08984V1.46484H9.5V1.08984C9.5 0.990388 9.53951 0.895005 9.60983 0.824679C9.68016 0.754353 9.77554 0.714844 9.875 0.714844C9.97446 0.714844 10.0698 0.754353 10.1402 0.824679C10.2105 0.895005 10.25 0.990388 10.25 1.08984V1.46484H11C11.3978 1.46484 11.7794 1.62288 12.0607 1.90418C12.342 2.18549 12.5 2.56702 12.5 2.96484V11.2148C12.5 11.6127 12.342 11.9942 12.0607 12.2755C11.7794 12.5568 11.3978 12.7148 11 12.7148H2C1.60218 12.7148 1.22064 12.5568 0.93934 12.2755C0.658035 11.9942 0.5 11.6127 0.5 11.2148V4.46484H12.5V3.71484H0.5V2.96484C0.5 2.56702 0.658035 2.18549 0.93934 1.90418C1.22064 1.62288 1.60218 1.46484 2 1.46484H2.75V1.08984C2.75 0.990388 2.78951 0.895005 2.85984 0.824679C2.93016 0.754353 3.02554 0.714844 3.125 0.714844V0.714844Z" fill="#CDCDCD"/>
</svg>
