<svg width="13" height="13" viewBox="0 0 13 13" fill="none" xmlns="http://www.w3.org/2000/svg">
<path d="M2.67383 0.450928C2.77328 0.450928 2.86867 0.490437 2.93899 0.560763C3.00932 0.631089 3.04883 0.726472 3.04883 0.825928V1.20093H9.04883V0.825928C9.04883 0.726472 9.08834 0.631089 9.15866 0.560763C9.22899 0.490437 9.32437 0.450928 9.42383 0.450928C9.52328 0.450928 9.61867 0.490437 9.68899 0.560763C9.75932 0.631089 9.79883 0.726472 9.79883 0.825928V1.20093H10.5488C10.9467 1.20093 11.3282 1.35896 11.6095 1.64027C11.8908 1.92157 12.0488 2.3031 12.0488 2.70093V10.9509C12.0488 11.3488 11.8908 11.7303 11.6095 12.0116C11.3282 12.2929 10.9467 12.4509 10.5488 12.4509H1.54883C1.151 12.4509 0.769473 12.2929 0.488168 12.0116C0.206863 11.7303 0.0488281 11.3488 0.0488281 10.9509V4.20093H12.0488V3.45093H0.0488281V2.70093C0.0488281 2.3031 0.206863 1.92157 0.488168 1.64027C0.769473 1.35896 1.151 1.20093 1.54883 1.20093H2.29883V0.825928C2.29883 0.726472 2.33834 0.631089 2.40866 0.560763C2.47899 0.490437 2.57437 0.450928 2.67383 0.450928V0.450928Z" fill="#8A8C8F"/>
</svg>
