<svg width="28" height="28" viewBox="0 0 28 28" fill="none" xmlns="http://www.w3.org/2000/svg">
<path d="M14.0004 1.75C14.961 1.74986 15.8869 2.10883 16.5964 2.7564C17.3059 3.40398 17.7477 4.29339 17.835 5.25H23.8004C24.0664 5.25008 24.3225 5.35114 24.5169 5.53276C24.7113 5.71438 24.8295 5.96302 24.8476 6.22843C24.8658 6.49385 24.7825 6.75625 24.6146 6.96262C24.4467 7.16899 24.2067 7.30394 23.9432 7.3402L23.8004 7.35H22.9842L21.2104 22.722C21.1314 23.4044 20.8043 24.0339 20.2914 24.4908C19.7785 24.9477 19.1155 25.2001 18.4286 25.2H9.57219C8.88528 25.2001 8.2223 24.9477 7.70938 24.4908C7.19645 24.0339 6.86939 23.4044 6.79039 22.722L5.01519 7.35H4.20039C3.94666 7.34999 3.70151 7.2581 3.51029 7.09133C3.31906 6.92455 3.1947 6.69418 3.16019 6.4428L3.15039 6.3C3.1504 6.04627 3.24229 5.80112 3.40906 5.6099C3.57584 5.41867 3.80622 5.29431 4.05759 5.2598L4.20039 5.25H10.1658C10.2531 4.29339 10.6949 3.40398 11.4044 2.7564C12.1139 2.10883 13.0398 1.74986 14.0004 1.75ZM11.9004 10.5C11.5574 10.5 11.2704 10.717 11.2116 11.0026L11.2004 11.1132V19.6882L11.2116 19.7974C11.2704 20.083 11.5574 20.3 11.9004 20.3C12.2434 20.3 12.5304 20.083 12.5892 19.7974L12.6004 19.6868V11.1146L12.5892 11.0026C12.5304 10.7184 12.2434 10.5 11.9004 10.5ZM16.1004 10.5C15.7574 10.5 15.4704 10.717 15.4116 11.0026L15.4004 11.1132V19.6882L15.4116 19.7974C15.4704 20.083 15.7574 20.3 16.1004 20.3C16.4434 20.3 16.7304 20.083 16.7892 19.7974L16.8004 19.6868V11.1146L16.7892 11.0026C16.7304 10.7184 16.4434 10.5014 16.1004 10.5014V10.5ZM14.0004 3.85C13.1534 3.85 12.4464 4.452 12.2854 5.25H15.7154C15.553 4.452 14.8474 3.85 14.0004 3.85Z" fill="#9B9B9B"/>
</svg>
