<svg width="19" height="20" viewBox="0 0 19 20" fill="none" xmlns="http://www.w3.org/2000/svg">
<path d="M9.4999 0.4375C10.289 0.437389 11.0495 0.73225 11.6323 1.26419C12.2151 1.79613 12.578 2.52671 12.6498 3.3125H17.5499C17.7684 3.31257 17.9788 3.39558 18.1385 3.54477C18.2981 3.69396 18.3952 3.89819 18.4101 4.11621C18.425 4.33423 18.3566 4.54978 18.2187 4.71929C18.0808 4.88881 17.8837 4.99966 17.6672 5.02945L17.5499 5.0375H16.8795L15.4224 17.6645C15.3575 18.225 15.0889 18.7421 14.6675 19.1174C14.2462 19.4927 13.7016 19.7001 13.1374 19.7H5.86245C5.2982 19.7001 4.75361 19.4927 4.33228 19.1174C3.91096 18.7421 3.64229 18.225 3.5774 17.6645L2.1192 5.0375H1.4499C1.24148 5.03749 1.04011 4.96201 0.883032 4.82502C0.725955 4.68802 0.623798 4.49879 0.595452 4.2923L0.587402 4.175C0.587411 3.96658 0.662891 3.76521 0.799884 3.60813C0.936877 3.45105 1.12612 3.3489 1.3326 3.32055L1.4499 3.3125H6.35005C6.42178 2.52671 6.78467 1.79613 7.36747 1.26419C7.95026 0.73225 8.71085 0.437389 9.4999 0.4375ZM7.7749 7.625C7.49315 7.625 7.2574 7.80325 7.2091 8.03785L7.1999 8.1287V15.1724L7.2091 15.2621C7.2574 15.4967 7.49315 15.675 7.7749 15.675C8.05665 15.675 8.2924 15.4967 8.3407 15.2621L8.3499 15.1713V8.12985L8.3407 8.03785C8.2924 7.8044 8.05665 7.625 7.7749 7.625ZM11.2249 7.625C10.9432 7.625 10.7074 7.80325 10.6591 8.03785L10.6499 8.1287V15.1724L10.6591 15.2621C10.7074 15.4967 10.9432 15.675 11.2249 15.675C11.5067 15.675 11.7424 15.4967 11.7907 15.2621L11.7999 15.1713V8.12985L11.7907 8.03785C11.7424 7.8044 11.5067 7.62615 11.2249 7.62615V7.625ZM9.4999 2.1625C8.80415 2.1625 8.2234 2.657 8.09115 3.3125H10.9087C10.7753 2.657 10.1957 2.1625 9.4999 2.1625Z" fill="#9B9B9B"/>
</svg>
